<svg width="1440" height="348" viewBox="0 0 1440 348" fill="none" xmlns="http://www.w3.org/2000/svg">
<path d="M1440 180.673C1440 249.926 1440 284.553 1422.04 289.824C1404.08 295.096 1385.37 265.964 1347.93 207.7L1337.45 191.387C1329.21 178.558 1325.09 172.143 1318.58 169.083C1312.07 166.023 1304.5 166.941 1289.36 168.778L955.056 209.341C950.293 209.919 947.911 210.208 945.641 210.937C943.371 211.667 941.267 212.819 937.058 215.124L713.683 337.48C701.624 344.085 695.595 347.388 689.043 347.312C682.49 347.236 676.539 343.795 664.636 336.913L454.435 215.377C450.231 212.946 448.128 211.731 445.847 210.945C443.565 210.159 441.16 209.821 436.351 209.147L152.941 169.408C137.663 167.266 130.025 166.195 123.409 169.201C116.793 172.206 112.575 178.664 104.138 191.58L91.8603 210.375C54.4434 267.655 35.7349 296.295 17.8675 290.976C0 285.658 0 250.938 0 181.5V181.5V50C0 26.4298 0 14.6447 7.32233 7.32233C14.6447 0 26.4298 0 50 0L689 0L1390 0C1413.57 0 1425.36 0 1432.68 7.32233C1440 14.6447 1440 26.4298 1440 50L1440 180.673Z" fill="black"/>
</svg>
