<svg width="389" height="388" viewBox="0 0 389 388" fill="none" xmlns="http://www.w3.org/2000/svg">
<ellipse cx="198" cy="192" rx="140" ry="140" fill="white"/>
<ellipse cx="198" cy="192" rx="120" ry="120" fill="black"/>
<rect x="191" width="20" height="200" rx="9" fill="white"/>
<rect x="388" y="181" width="20" height="388" rx="9" transform="rotate(90 389 181)" fill="white"/>
<rect x="336.38" y="49.9384" width="20" height="388.054" rx="9" transform="rotate(48 336.38 49.9384)" fill="white"/>
<rect x="350.716" y="310.701" width="22" height="387.313" rx="11" transform="rotate(132 350.716 310.701)" fill="white"/>
<ellipse cx="202" cy="185.5" rx="73" ry="73" fill="black"/>
<ellipse cx="202" cy="187" rx="65" ry="65" fill="#86c232"/>

<path d="M200.323 224.648C198.624 225.85 196.705 226.157 194.566 225.571C192.047 224.897 190.787 223.271 190.787 220.693C190.787 218.145 191.271 215.698 192.237 213.354C193.204 210.981 194.083 208.931 194.874 207.202L201.51 193.623L213.814 171.475C210.621 170.625 207.237 170.2 203.663 170.2C200.089 170.2 197.188 170.449 194.962 170.947C192.735 171.445 190.904 172.119 189.469 172.969C186.568 174.609 185.118 176.66 185.118 179.121C185.118 179.971 185.294 180.703 185.646 181.318C185.47 181.729 184.972 181.934 184.151 181.934C183.331 181.934 182.599 181.772 181.954 181.45C181.339 181.128 180.797 180.703 180.328 180.176C179.332 179.004 178.834 177.554 178.834 175.825C178.834 174.067 179.522 172.544 180.899 171.255C179.845 170.464 179.317 169.424 179.317 168.135C179.317 166.846 179.698 165.82 180.46 165.059C179.464 163.535 178.966 162.085 178.966 160.708C178.966 159.331 179.098 158.232 179.361 157.412C179.625 156.592 179.977 155.874 180.416 155.259C181.441 153.882 182.672 153.193 184.107 153.193C183.99 156.328 185.426 157.896 188.414 157.896C189.293 157.896 191.49 157.72 195.006 157.368C198.229 157.046 202.125 156.885 206.695 156.885C211.295 156.885 216.158 157.573 221.285 158.95C222.34 157.573 223.453 156.885 224.625 156.885C226.324 156.885 227.174 157.866 227.174 159.829C227.174 160.972 226.676 162.583 225.68 164.663L223.526 169.102C214.005 188.438 209.244 204.038 209.244 215.903C209.244 219.302 211.207 221.001 215.133 221.001C216.129 221.001 216.949 220.752 217.594 220.254C217.916 220.693 218.077 221.206 218.077 221.792C218.077 222.378 217.901 222.92 217.55 223.418C217.228 223.916 216.803 224.355 216.275 224.736C215.104 225.498 213.712 225.879 212.101 225.879C210.519 225.879 209.024 225.571 207.618 224.956C205.04 226.304 202.608 226.201 200.323 224.648ZM189.117 165.322C191.227 164.18 195.27 163.608 201.246 163.608C207.223 163.608 211.588 164.297 214.342 165.674C214.43 164.795 214.225 164.106 213.727 163.608C213.258 163.081 211.998 162.627 209.947 162.246C207.896 161.836 205.714 161.631 203.399 161.631C201.114 161.631 199.298 161.675 197.95 161.763C196.632 161.851 195.416 161.982 194.303 162.158C191.9 162.48 190.392 162.92 189.776 163.477C189.19 164.004 188.971 164.619 189.117 165.322ZM209.156 187.251C200.514 202.485 196.192 212.52 196.192 217.354C196.192 218.408 196.485 219.17 197.071 219.639C197.657 220.078 198.595 220.298 199.884 220.298C199.444 219.624 199.225 218.965 199.225 218.32V216.826C199.225 214.6 200.455 210.557 202.916 204.697C205.494 198.75 207.12 194.956 207.794 193.315L209.112 189.976C209.435 189.126 209.596 188.511 209.596 188.13C209.596 187.72 209.449 187.427 209.156 187.251Z" fill="black"/>
<path d="M29 274.769V274.769C29 264.757 37.703 256.967 47.6545 258.072L195.792 274.524C197.26 274.687 198.74 274.687 200.208 274.524L348.345 258.072C358.297 256.967 367 264.757 367 274.769V274.769V358C367 369.046 358.046 378 347 378H49C37.9543 378 29 369.046 29 358V274.769Z" fill="black"/>
<path d="M71.4688 353.286C69.125 355.63 66.8984 356.802 64.7891 356.802C63.4414 356.802 62.5332 356.304 62.0645 
	355.308C62.7383 354.487 63.0752 353.257 63.0752 351.616V350.957C63.0752 350.781 63.0605 350.62 63.0312 350.474C61.5664 349.155 60.834 347.603 60.834 345.815C60.834 343.999 61.6836 342.153 63.3828 340.278C62.8848 339.282 62.6357 338.228 62.6357 337.114C62.6357 335.972 62.7969 334.917 63.1191 333.95C63.4707 332.954 63.9395 332.09 64.5254 331.357C65.7559 329.746 66.957 328.94 68.1289 328.94C69.3301 328.94 70.1797 329.409 70.6777 330.347C69.623 331.46 69.0957 333.203 69.0957 335.576C69.0957 337.949 69.4326 340.015 70.1064 341.772C70.8096 343.53 71.791 345.039 73.0508 346.299C75.7461 349.053 79.1885 350.43 83.3779 350.43C86.1904 350.43 88.5781 349.624 90.541 348.013C92.6504 346.284 93.7051 343.926 93.7051 340.938C93.7051 338.828 93.207 337.114 92.2109 335.796C90.6582 333.745 88.2266 331.577 84.916 329.292C82.3672 327.505 80.3311 326.611 78.8076 326.611C77.2549 326.611 75.541 327.241 73.666 328.501C74.1641 327.007 74.4131 325.615 74.4131 324.326C74.4131 324.033 74.1348 323.652 73.5781 323.184L71.9521 321.733C66.8252 317.017 63.793 312.637 62.8555 308.594C62.5332 307.188 62.3721 305.43 62.3721 303.32C62.3721 301.182 62.8848 299.028 63.9102 296.86C64.9648 294.663 66.4004 292.803 68.2168 291.279C71.9961 288.057 76.8008 286.445 82.6309 286.445C86.1758 286.445 89.4277 287.017 92.3867 288.159C93.6465 288.657 95.082 288.906 96.6934 288.906C97.3672 288.906 97.9678 288.877 98.4951 288.818C99.0518 288.73 99.5352 288.423 99.9453 287.896C100.326 287.339 100.517 286.841 100.517 286.401C100.517 285.962 100.458 285.596 100.341 285.303C100.546 285.215 100.824 285.171 101.176 285.171C101.557 285.171 101.967 285.303 102.406 285.566C102.846 285.801 103.241 286.138 103.593 286.577C104.384 287.573 104.779 288.701 104.779 289.961C104.779 291.191 104.428 292.129 103.725 292.773C104.721 293.652 105.219 295.015 105.219 296.86C105.219 298.677 104.604 300.2 103.373 301.431C103.607 302.222 103.725 302.939 103.725 303.584C103.725 304.199 103.607 304.8 103.373 305.386C103.168 305.942 102.875 306.426 102.494 306.836C101.645 307.744 100.839 308.198 100.077 308.198C98.876 308.198 97.8652 307.993 97.0449 307.583C97.543 306.411 97.792 305.151 97.792 303.804C97.792 302.456 97.4844 301.079 96.8691 299.673C96.2832 298.237 95.4482 296.992 94.3643 295.938C92.0791 293.77 89.0908 292.686 85.3994 292.686C83.0557 292.686 81.1367 293.403 79.6426 294.839C78.2363 296.187 77.5332 297.812 77.5332 299.717C77.5332 301.152 77.8848 302.354 78.5879 303.32C79.8184 304.99 81.7666 306.719 84.4326 308.506L86.542 309.912C87.7139 310.645 88.5049 311.011 88.915 311.011C89.3252 311.011 89.7354 310.967 90.1455 310.879C90.5557 310.791 91.0098 310.674 91.5078 310.527C92.5625 310.176 93.5879 309.678 94.584 309.033L94.0127 311.494C93.8369 312.314 93.749 312.915 93.749 313.296C93.749 313.911 94.0566 314.468 94.6719 314.966C100.15 319.712 103.812 323.682 105.658 326.875C107.27 329.658 108.075 332.661 108.075 335.884C108.075 339.106 107.548 341.875 106.493 344.189C105.438 346.504 103.9 348.555 101.879 350.342C97.4258 354.326 91.6396 356.318 84.5205 356.318C79.5107 356.318 75.1602 355.308 71.4688 353.286ZM68.4805 300.068C67.3672 300.537 66.8105 301.753 66.8105 303.716C66.8105 307.729 69.4912 312.139 74.8525 316.943L77.4893 319.316C78.3975 320.137 78.793 320.767 78.6758 321.206C78.5879 321.646 78.5 321.997 78.4121 322.261C78.3535 322.524 78.2803 322.773 78.1924 323.008C78.1045 323.242 78.0459 323.418 78.0166 323.535C79.042 322.92 79.877 322.612 80.5215 322.612C81.8105 322.612 83.0264 322.964 84.1689 323.667C89.8232 327.183 93.6611 330.317 95.6826 333.071C97.1475 335.093 97.9092 337.612 97.9678 340.63C97.9678 341.714 97.8945 342.622 97.748 343.354C99.3008 342.358 100.077 340.776 100.077 338.608C100.077 336.499 99.7842 334.873 99.1982 333.73C98.6416 332.588 97.9824 331.577 97.2207 330.698C96.459 329.79 95.4629 328.809 94.2324 327.754C93.0312 326.699 91.5371 325.557 89.75 324.326L83.5098 320.063C78.3828 316.694 74.4863 313.135 71.8203 309.385C69.4766 306.074 68.3633 302.969 68.4805 300.068ZM148.971 355.879C147.037 355.879 145.323 355.41 143.829 354.473C142.335 355.41 140.943 355.879 139.654 355.879C138.395 355.879 137.354 355.762 136.534 355.527C135.714 355.322 134.996 355.029 134.381 354.648C133.121 353.887 132.491 352.935 132.491 351.792C132.491 351.206 132.652 350.693 132.975 350.254C133.619 350.752 134.439 351.001 135.436 351.001C138.043 351.001 139.845 349.888 140.841 347.661V326.172C140.841 324.824 140.562 323.828 140.006 323.184C139.127 322.1 137.618 321.03 135.479 319.976C137.472 319.067 138.761 318.262 139.347 317.559C140.343 316.416 140.841 315.127 140.841 313.691V295.146C139.845 292.891 138.043 291.763 135.436 291.763C134.439 291.763 133.619 292.012 132.975 292.51C132.652 292.07 132.491 291.572 132.491 291.016C132.491 290.43 132.652 289.888 132.975 289.39C133.326 288.892 133.795 288.467 134.381 288.115C135.729 287.295 137.267 286.885 138.995 286.885C140.753 286.885 142.364 287.368 143.829 288.335C145.353 287.368 147.096 286.885 149.059 286.885C151.021 286.885 152.809 287.456 154.42 288.599C157.525 287.456 161.114 286.885 165.187 286.885C168.204 286.885 170.782 287.178 172.921 287.764L176.832 288.818C177.301 288.936 177.755 288.994 178.194 288.994C179.015 288.994 179.425 288.408 179.425 287.236C179.425 286.943 179.322 286.445 179.117 285.742C179.938 285.596 180.978 285.522 182.237 285.522C183.497 285.522 184.566 285.947 185.445 286.797C186.324 287.617 186.764 288.818 186.764 290.4C186.764 291.953 186.485 293.096 185.929 293.828C186.72 295 187.115 296.436 187.115 298.135C187.115 299.805 186.544 301.211 185.401 302.354C185.753 303.232 185.929 304.097 185.929 304.946C185.929 305.767 185.782 306.528 185.489 307.231C185.226 307.905 184.889 308.477 184.479 308.945C183.658 309.795 182.823 310.22 181.974 310.22C180.743 310.22 179.63 309.956 178.634 309.429C178.985 308.726 179.161 307.686 179.161 306.309C179.161 303.086 178.355 300.259 176.744 297.827C174.547 294.487 171.251 292.817 166.856 292.817C164.63 292.817 162.608 293.359 160.792 294.443C159.005 295.527 157.745 297.08 157.013 299.102V316.108C158.038 316.753 158.99 317.075 159.869 317.075C160.777 317.075 161.451 317.061 161.891 317.031C162.359 317.002 162.828 316.943 163.297 316.855C164.498 316.68 165.421 316.445 166.065 316.152C167.296 315.566 167.911 314.131 167.911 311.846C167.911 310.557 167.604 309.561 166.988 308.857C167.574 308.447 168.307 308.242 169.186 308.242C171.148 308.242 172.569 309.033 173.448 310.615C173.771 311.172 173.932 311.787 173.932 312.461C173.932 313.135 173.756 313.97 173.404 314.966C174.605 316.343 175.206 317.983 175.206 319.888C175.206 321.763 174.605 323.389 173.404 324.766C173.756 325.762 173.932 326.67 173.932 327.49C173.932 328.281 173.771 329.043 173.448 329.775C173.126 330.508 172.73 331.094 172.262 331.533C171.354 332.354 170.328 332.764 169.186 332.764C168.365 332.764 167.633 332.529 166.988 332.061C167.604 331.035 167.911 329.834 167.911 328.457C167.911 325.732 167.164 324.048 165.67 323.403C164.352 322.876 162.843 322.612 161.144 322.612C159.444 322.612 158.067 322.92 157.013 323.535V345.508C158.712 348.496 161.993 349.99 166.856 349.99C172.364 349.99 176.114 348.291 178.106 344.893C180.421 340.996 181.578 336.821 181.578 332.368C181.578 331.079 181.461 330.083 181.227 329.38C181.959 328.647 182.721 328.281 183.512 328.281C184.303 328.281 184.903 328.398 185.313 328.633C185.724 328.838 186.09 329.102 186.412 329.424C187.115 330.215 187.467 331.021 187.467 331.841L187.203 333.994C187.203 334.551 187.35 335.005 187.643 335.356C188.229 335.972 188.521 336.558 188.521 337.114C188.521 337.642 188.346 338.286 187.994 339.048C188.668 339.429 189.269 340 189.796 340.762C190.353 341.494 190.631 342.256 190.631 343.047C190.631 344.717 189.928 346.211 188.521 347.529C189.137 348.408 189.444 349.683 189.444 351.353C189.444 352.993 188.961 354.385 187.994 355.527C187.057 356.699 185.826 357.285 184.303 357.285C183.482 357.285 182.633 357.197 181.754 357.021C181.871 356.377 181.93 355.732 181.93 355.088C181.93 353.74 181.314 353.066 180.084 353.066C178.707 353.066 177.33 353.345 175.953 353.901C172.701 355.22 168.995 355.879 164.835 355.879C160.704 355.879 157.188 355.337 154.288 354.253C152.765 355.337 150.992 355.879 148.971 355.879ZM145.06 343.354C146.524 342.798 147.33 340.879 147.477 337.598C147.652 334.316 147.74 329.775 147.74 323.975C147.74 318.174 147.726 314.321 147.696 312.417C147.696 310.483 147.682 308.931 147.652 307.759C147.564 304.302 147.228 302.222 146.642 301.519C146.085 300.786 145.558 300.303 145.06 300.068C145.06 310.264 144.884 316.064 144.532 317.471C144.122 318.643 143.126 319.478 141.544 319.976C143.302 320.591 144.298 321.338 144.532 322.217C144.884 323.623 145.06 328.765 145.06 337.642V343.354ZM156.134 342.915C156.134 343.003 156.148 343.076 156.178 343.135L156.134 342.915ZM215.794 354.692C214.71 355.483 213.465 355.879 212.059 355.879C210.682 355.879 209.583 355.527 208.763 354.824C207.913 354.092 207.488 353.257 207.488 352.319C207.488 351.382 207.635 350.693 207.928 350.254C208.777 350.752 209.817 351.001 211.048 351.001C212.308 351.001 213.245 350.84 213.86 350.518C214.505 350.166 215.12 349.697 215.706 349.111L221.946 330.61L222.825 327.578C223.089 326.67 223.221 325.835 223.221 325.073C223.221 322.407 221.961 320.708 219.441 319.976C221.756 319.097 223.382 318.145 224.319 317.119C225.784 315.508 226.941 313.384 227.791 310.747L232.625 294.531C231.688 293.271 230.574 292.642 229.285 292.642C227.996 292.642 226.795 292.92 225.682 293.477C225.389 292.949 225.242 292.363 225.242 291.719C225.242 291.045 225.374 290.415 225.638 289.829C225.931 289.243 226.326 288.73 226.824 288.291C227.938 287.354 229.52 286.885 231.57 286.885C233.621 286.885 235.364 287.5 236.8 288.73C238.265 287.5 240.081 286.885 242.249 286.885C244.446 286.885 246.189 287.471 247.479 288.643C249.354 287.471 251.258 286.885 253.191 286.885C255.125 286.885 256.619 287.251 257.674 287.983C258.758 288.716 259.3 289.712 259.3 290.972C259.3 291.558 259.124 292.07 258.772 292.51C258.099 292.012 257.308 291.763 256.399 291.763C254.437 291.763 253.162 293.096 252.576 295.762L258.201 313.735C258.904 315.991 260.662 317.749 263.475 319.009C264.266 319.36 265.071 319.683 265.892 319.976C262.962 320.942 261.497 322.393 261.497 324.326C261.497 325.059 261.614 325.703 261.849 326.26L270.242 348.76C271.531 350.107 272.835 350.781 274.153 350.781C275.472 350.781 276.497 350.532 277.229 350.034C277.552 350.269 277.713 350.708 277.713 351.353C277.713 351.997 277.61 352.598 277.405 353.154C277.2 353.682 276.878 354.15 276.438 354.561C275.501 355.439 274.124 355.879 272.308 355.879C270.491 355.879 268.909 355.381 267.562 354.385C266.038 355.381 264.31 355.879 262.376 355.879C260.472 355.879 258.831 355.396 257.454 354.429C256.136 355.396 254.583 355.879 252.796 355.879C251.009 355.879 249.529 355.513 248.357 354.78C247.186 354.019 246.57 352.949 246.512 351.572C246.512 350.752 246.673 350.239 246.995 350.034C247.786 350.532 248.592 350.781 249.412 350.781C251.141 350.781 252.356 350.43 253.06 349.727L249.72 338.521H225.945L223.045 348.232C224.246 350.078 225.696 351.001 227.396 351.001C229.124 351.001 230.413 350.752 231.263 350.254C231.585 350.781 231.746 351.514 231.746 352.451C231.746 353.359 231.292 354.165 230.384 354.868C229.476 355.542 228.304 355.879 226.868 355.879C225.433 355.879 224.114 355.513 222.913 354.78C221.858 355.513 220.643 355.879 219.266 355.879C217.918 355.879 216.761 355.483 215.794 354.692ZM247.918 332.588L237.723 298.706L227.703 332.588H247.918ZM256.312 343.354C256.839 343.354 257.103 342.769 257.103 341.597C257.103 339.546 256.795 337.554 256.18 335.62L254.51 330.479C253.338 326.611 252.752 324.18 252.752 323.184C252.723 321.543 253.44 320.459 254.905 319.932C252.884 319.521 251.653 318.892 251.214 318.042C251.009 317.69 250.833 317.412 250.687 317.207C250.569 317.002 250.438 316.768 250.291 316.504C250.174 316.211 250.027 315.845 249.852 315.405C249.676 314.966 249.441 314.336 249.148 313.516L246.424 305.298C245.779 303.247 244.827 301.694 243.567 300.64C243.187 300.317 242.835 300.127 242.513 300.068C244.476 307.158 245.765 311.699 246.38 313.691C250.628 326.758 253.177 334.507 254.026 336.938L256.312 343.354ZM269.275 347.31L269.363 347.573L269.275 347.31ZM308.105 353.286C305.762 355.63 303.535 356.802 301.426 356.802C300.078 356.802 299.17 356.304 298.701 355.308C299.375 354.487 299.712 353.257 299.712 351.616V350.957C299.712 350.781 299.697 350.62 299.668 350.474C298.203 349.155 297.471 347.603 297.471 345.815C297.471 343.999 298.32 342.153 300.02 340.278C299.521 339.282 299.272 338.228 299.272 337.114C299.272 335.972 299.434 334.917 299.756 333.95C300.107 332.954 300.576 332.09 301.162 331.357C302.393 329.746 303.594 328.94 304.766 328.94C305.967 328.94 306.816 329.409 307.314 330.347C306.26 331.46 305.732 333.203 305.732 335.576C305.732 337.949 306.069 340.015 306.743 341.772C307.446 343.53 308.428 345.039 309.688 346.299C312.383 349.053 315.825 350.43 320.015 350.43C322.827 350.43 325.215 349.624 327.178 348.013C329.287 346.284 330.342 343.926 330.342 340.938C330.342 338.828 329.844 337.114 328.848 335.796C327.295 333.745 324.863 331.577 321.553 329.292C319.004 327.505 316.968 326.611 315.444 326.611C313.892 326.611 312.178 327.241 310.303 328.501C310.801 327.007 311.05 325.615 311.05 324.326C311.05 324.033 310.771 323.652 310.215 323.184L308.589 321.733C303.462 317.017 300.43 312.637 299.492 308.594C299.17 307.188 299.009 305.43 299.009 303.32C299.009 301.182 299.521 299.028 300.547 296.86C301.602 294.663 303.037 292.803 304.854 291.279C308.633 288.057 313.438 286.445 319.268 286.445C322.812 286.445 326.064 287.017 329.023 288.159C330.283 288.657 331.719 288.906 333.33 288.906C334.004 288.906 334.604 288.877 335.132 288.818C335.688 288.73 336.172 288.423 336.582 287.896C336.963 287.339 337.153 286.841 337.153 286.401C337.153 285.962 337.095 285.596 336.978 285.303C337.183 285.215 337.461 285.171 337.812 285.171C338.193 285.171 338.604 285.303 339.043 285.566C339.482 285.801 339.878 286.138 340.229 286.577C341.021 287.573 341.416 288.701 341.416 289.961C341.416 291.191 341.064 292.129 340.361 292.773C341.357 293.652 341.855 295.015 341.855 296.86C341.855 298.677 341.24 300.2 340.01 301.431C340.244 302.222 340.361 302.939 340.361 303.584C340.361 304.199 340.244 304.8 340.01 305.386C339.805 305.942 339.512 306.426 339.131 306.836C338.281 307.744 337.476 308.198 336.714 308.198C335.513 308.198 334.502 307.993 333.682 307.583C334.18 306.411 334.429 305.151 334.429 303.804C334.429 302.456 334.121 301.079 333.506 299.673C332.92 298.237 332.085 296.992 331.001 295.938C328.716 293.77 325.728 292.686 322.036 292.686C319.692 292.686 317.773 293.403 316.279 294.839C314.873 296.187 314.17 297.812 314.17 299.717C314.17 301.152 314.521 302.354 315.225 303.32C316.455 304.99 318.403 306.719 321.069 308.506L323.179 309.912C324.351 310.645 325.142 311.011 325.552 311.011C325.962 311.011 326.372 310.967 326.782 310.879C327.192 310.791 327.646 310.674 328.145 310.527C329.199 310.176 330.225 309.678 331.221 309.033L330.649 311.494C330.474 312.314 330.386 312.915 330.386 313.296C330.386 313.911 330.693 314.468 331.309 314.966C336.787 319.712 340.449 323.682 342.295 326.875C343.906 329.658 344.712 332.661 344.712 335.884C344.712 339.106 344.185 341.875 343.13 344.189C342.075 346.504 340.537 348.555 338.516 350.342C334.062 354.326 328.276 356.318 321.157 356.318C316.147 356.318 311.797 355.308 308.105 353.286ZM305.117 300.068C304.004 300.537 303.447 301.753 303.447 303.716C303.447 307.729 306.128 312.139 311.489 316.943L314.126 319.316C315.034 320.137 315.43 320.767 315.312 321.206C315.225 321.646 315.137 321.997 315.049 322.261C314.99 322.524 314.917 322.773 314.829 323.008C314.741 323.242 314.683 323.418 314.653 323.535C315.679 322.92 316.514 322.612 317.158 322.612C318.447 322.612 319.663 322.964 320.806 323.667C326.46 327.183 330.298 330.317 332.319 333.071C333.784 335.093 334.546 337.612 334.604 340.63C334.604 341.714 334.531 342.622 334.385 343.354C335.938 342.358 336.714 340.776 336.714 338.608C336.714 336.499 336.421 334.873 335.835 333.73C335.278 332.588 334.619 331.577 333.857 330.698C333.096 329.79 332.1 328.809 330.869 327.754C329.668 326.699 328.174 325.557 326.387 324.326L320.146 320.063C315.02 316.694 311.123 313.135 308.457 309.385C306.113 306.074 305 302.969 305.117 300.068Z" fill="#86c232"/>
</svg>
